<svg class="svg-standalone-icon" viewBox="0 0 78.426 68.194">
  <g>
    <path d="M158.504 260.67q-3.728-5.7-3.728-14.618v-25.874q0-5.92-1.9-8.04-1.974-2.047-5.701-2.047l26.093-6.651h44.586l7.747 68.121-45.974.073q-6.213 0-11.841-2.705-5.628-2.631-9.282-8.259m42.356-2.212c-6.29 5.522-13.613 7.737-21.94 6.585 8.475-1.565 12.727-6.998 12.727-16.359v-29.499c.03-2.54.915-4.725 2.717-6.555 1.83-1.86 4.045-2.806 6.643-2.806 2.363 0 4.43.798 6.172 2.363s2.776 3.514 3.042 5.846c.029.384.059 6.88.059 19.519 0 8.416-3.13 15.385-9.42 20.906m11.93-39.273c0-2.303-.62-4.43-1.89-6.378-1.211-1.86-2.806-3.307-4.814-4.311-3.041-1.565-6.2-1.654-9.449-.325-2.214.915-4.016 2.362-5.404 4.37-1.387 2.037-2.067 4.252-2.067 6.644v18.367c0 1.801-.62 3.307-1.89 4.577s-2.775 1.89-4.547 1.89c-.945 0-2.185-.355-3.691-1.034a12 12 0 0 0-4.872-1.122c-3.603-.059-6.497 1.034-8.652 3.248-2.156 2.185-3.219 5.08-3.16 8.682.03 2.037.68 4.075 2.008 6.171 1.329 2.126 3.012 3.691 4.99 4.695a30.1 30.1 0 0 0 9.036 2.865c8.83 1.299 16.714-.975 23.683-6.85q10.719-9.037 10.718-23.122z" 
      style="fill:#3498db; stroke:#2c3e50; stroke-width:2" />
  </g>
</svg>
